<?xml version="1.0" encoding="utf-8"?>
<!-- Generator: Adobe Illustrator 16.0.0, SVG Export Plug-In . SVG Version: 6.00 Build 0)  -->
<!DOCTYPE svg PUBLIC "-//W3C//DTD SVG 1.1//EN" "http://www.w3.org/Graphics/SVG/1.1/DTD/svg11.dtd">
<svg version="1.1" id="Vrstva_1" xmlns="http://www.w3.org/2000/svg" xmlns:xlink="http://www.w3.org/1999/xlink" x="0px" y="0px"
	 width="80.136px" height="142.787px" viewBox="0 0 80.136 142.787" enable-background="new 0 0 80.136 142.787"
	 xml:space="preserve">
<g>
	<path fill="#603813" d="M80.101,38.235C79.284,21.192,67.858,6.441,51.479,1.663c-2.705-0.79-3.931-1.191-7.686-1.495
		C41.733,0,41.102,0,40.067,0c-1.016,0-3.761,0.155-4.124,0.196c-10.86,1.236-19.922,5.96-26.822,14.435
		C1.63,23.832-1.495,34.348,0.675,46.186c1.405,7.665,3.909,15.026,6.612,22.303c2.565,6.902,5.275,13.741,8.094,20.534
		c1.171,2.823,2.362,5.64,3.57,8.446c6.411,14.893,13.304,29.573,20.372,44.177c0.192,0.396,0.463,0.757,0.701,1.141
		c0.161-0.113,0.268-0.146,0.299-0.214c6.372-13.695,12.879-27.328,19.069-41.104c0.598-1.331,1.191-2.664,1.781-3.999
		c1.656-3.741,3.279-7.498,4.852-11.274c4.136-9.931,7.923-20,11.031-30.324C78.785,50.129,80.395,44.367,80.101,38.235z"/>
	<path fill="#FFFFFF" d="M59.853,49.718c-0.236-2.246-0.627-4.463-1.235-6.639c-0.514-1.837-1.047-3.669-1.547-5.51
		c-0.68-2.499-1.233-5.027-1.726-7.569c-0.572-2.959-1.027-5.937-1.271-8.942c-0.17-2.09-0.29-4.185-0.436-6.277
		c-0.028-0.4-0.065-0.8-0.097-1.2c-0.012-0.161-0.09-0.241-0.257-0.238c-0.177,0.003-0.356-0.004-0.535-0.004
		c-8.647,0-17.296,0.002-25.944,0.003c-0.089,0-0.179,0.005-0.268,0.002c-0.173-0.006-0.272,0.059-0.281,0.247
		c-0.008,0.178-0.041,0.355-0.051,0.533c-0.142,2.293-0.286,4.587-0.472,6.877c-0.175,2.159-0.434,4.305-0.801,6.44
		c-0.544,3.167-1.197,6.312-2.002,9.424c-0.473,1.826-1.02,3.63-1.524,5.446c-0.721,2.597-1.255,5.225-1.486,7.914
		c-0.091,1.049-0.109,2.095-0.009,3.141c0.148,1.561,0.456,3.088,1.018,4.558c0.5,1.306,1.101,2.559,1.891,3.719
		c0.441,0.648,0.929,1.256,1.439,1.847c0.454,0.525,0.954,1.005,1.485,1.446c1.156,0.957,2.4,1.78,3.795,2.356
		c0.206,0.086,0.41,0.179,0.607,0.281c0.392,0.202,0.673,0.496,0.827,0.923c0.198,0.551,0.148,1.063-0.134,1.575
		c-0.603,1.095-1.188,2.198-1.784,3.297c-1.332,2.464-2.661,4.926-3.995,7.389c-0.118,0.218-0.211,0.44-0.244,0.688
		c-0.088,0.651,0.318,1.227,0.956,1.382c0.25,0.061,0.544,0.09,0.804,0.09c4.486-0.004,8.837-0.003,13.525-0.003
		c0-0.001,8.857,0.003,13.354,0.003c0.374,0,0.413-0.054,0.594-0.114c0.703-0.234,1.1-0.844,0.94-1.569
		c-0.048-0.222-0.159-0.38-0.266-0.577c-0.948-1.757-1.897-3.496-2.847-5.253c-0.986-1.826-1.959-3.651-2.965-5.466
		c-0.433-0.78-0.108-1.989,0.793-2.386c0.111-0.05,0.223-0.101,0.333-0.152c0.476-0.223,0.966-0.416,1.421-0.672
		c1.319-0.741,2.539-1.615,3.598-2.707c0.89-0.917,1.683-1.91,2.343-3c0.684-1.127,1.221-2.328,1.659-3.576
		c0.487-1.39,0.746-2.827,0.87-4.285C60.03,52.014,59.973,50.862,59.853,49.718z M58.14,53.5c-0.253,2.311-1.009,4.442-2.241,6.399
		c-0.933,1.481-2.076,2.783-3.496,3.828c-0.759,0.558-1.314,1.064-3.642,2.188c-1.659,0.802-2.301,0.944-3.447,1.21
		c-2.007,0.464-4.043,0.597-6.097,0.537c-1.984-0.057-3.931-0.352-5.826-0.952c-0.746-0.236-2.094-0.784-3.054-1.263
		c-0.687-0.343-2.315-1.218-3.344-2.042c-0.861-0.691-1.609-1.497-2.281-2.372c-0.84-1.095-1.519-2.282-2.04-3.558
		c-0.485-1.187-0.819-2.413-0.974-3.688c-0.023-0.188-0.06-0.366-0.073-0.555c-0.015-0.214,0.022-0.234,0.229-0.251
		c0.118-0.01,0.239,0.003,0.354,0.028c6.514,1.366,16.822,0.215,20.457-0.708c4.296-1.09,9.462-1.14,14.949,0.642
		C58.202,53.134,58.203,52.924,58.14,53.5z"/>
</g>
</svg>
