<?xml version="1.0" encoding="utf-8"?>
<!-- Generator: Adobe Illustrator 16.0.0, SVG Export Plug-In . SVG Version: 6.00 Build 0)  -->
<!DOCTYPE svg PUBLIC "-//W3C//DTD SVG 1.1//EN" "http://www.w3.org/Graphics/SVG/1.1/DTD/svg11.dtd">
<svg version="1.1" id="Vrstva_1" xmlns="http://www.w3.org/2000/svg" xmlns:xlink="http://www.w3.org/1999/xlink" x="0px" y="0px"
	 width="20px" height="36px" viewBox="0 0 20 36" enable-background="new 0 0 20 36" xml:space="preserve">
<path fill-rule="evenodd" clip-rule="evenodd" fill="#4C4C4C" d="M1131.417-114.757c-3.275-68.314-49.067-127.443-114.728-146.596
	c-10.844-3.163-22.191-3.97-33.307-6.97c-8.216,0-16.429,0-24.645,0c-1.438,1-2.859,0.927-4.315,1.093
	c-43.532,4.953-79.86,23.888-107.515,57.857c-30.027,36.882-42.555,79.035-33.854,126.486c5.633,30.724,15.667,60.229,26.503,89.396
	c37.221,100.18,81.895,197.124,128.412,293.24c0.771,1.591,1.854,3.034,2.809,4.572c0.647-0.455,1.07-0.587,1.197-0.859
	c25.543-54.891,51.624-109.538,76.437-164.759c26.804-59.648,51.916-120.037,70.805-182.771
	C1126.144-67.079,1132.595-90.18,1131.417-114.757z"/>
<g>
	<path fill="#010101" d="M1059.421-89.891c-2.322-8.351-4.766-16.668-7.015-25.039c-3.79-14.104-6.754-28.391-9.245-42.78
		c-1.557-8.987-2.793-18.02-3.577-27.103c-0.751-8.684-1.257-17.388-1.874-26.084c-0.261-3.677-0.507-7.355-0.81-11.029
		c-0.18-2.188-2.202-3.993-4.359-3.993c-27.705,0.004-55.41,0.008-83.115,0.012c-12.955,0.002-25.91,0.014-38.866-0.016
		c-1.425-0.003-2.562,0.333-3.622,1.362c-0.932,0.903-1.48,1.816-1.4,3.117c0.031,0.492-0.068,0.993-0.102,1.49
		c-0.556,8.251-1.111,16.502-1.664,24.754c-0.469,7.01-1.08,14.009-1.91,20.985c-0.938,7.867-2.259,15.676-3.691,23.469
		c-2.939,15.989-6.68,31.782-11.235,47.385c-2.248,7.7-4.423,15.421-6.19,23.248c-1.24,5.494-2.135,11.049-2.834,16.641
		c-1.03,8.232-1.531,16.455-0.41,24.729c0.57,4.207,1.26,8.395,2.472,12.447c2.712,9.075,6.606,17.605,12.144,25.356
		c3.612,5.058,7.695,9.695,12.416,13.694c5.179,4.386,10.771,8.218,17.063,10.914c1.236,0.529,2.461,1.091,3.66,1.696
		c1.738,0.878,2.252,2.493,1.41,4.269c-0.148,0.314-0.32,0.619-0.485,0.926c-8.438,15.603-16.878,31.203-25.309,46.809
		c-0.473,0.875-0.962,1.761-1.28,2.696c-1.448,4.254-0.561,8.764,3.066,11.784c2.314,1.927,5.318,2.606,8.211,2.61
		C931.148,94.486,951,94.474,972,94.474c0-0.007,0-0.013,0-0.019c20,0,39.971-0.001,60.102,0.004
		c0.998,0.001,1.848-0.024,2.831-0.203c6.952-1.262,10.507-8.155,8.054-14.391c-0.309-0.785-0.727-1.547-1.128-2.291
		c-7.809-14.469-15.645-28.933-23.459-43.398c-0.853-1.578-1.746-3.141-2.539-4.748c-0.753-1.525-0.212-3.147,1.268-3.96
		c0.741-0.407,1.514-0.758,2.292-1.09c3.627-1.55,7.076-3.42,10.414-5.527c5.347-3.375,10.141-7.405,14.37-12.074
		c4.63-5.11,8.685-10.646,11.823-16.824c3.26-6.421,5.928-13.047,7.56-20.082c0.971-4.188,1.62-8.422,1.945-12.689
		c0.456-5.974,0.122-11.939-0.538-17.895C1063.898-70.59,1062.082-80.32,1059.421-89.891z M1060.698-43.237
		c-0.557,6.509-1.708,12.924-3.888,19.133c-1.957,5.571-4.356,10.936-7.406,15.97c-2.948,4.865-6.489,9.305-10.465,13.4
		c-4.729,4.874-10.175,8.78-16.062,12.087c-2.035,1.144-4.227,2.012-6.347,3.004c-0.496,0.232-0.99,0.472-1.49,0.692
		c-4.023,1.772-5.471,7.189-3.539,10.672c4.494,8.104,8.834,16.293,13.238,24.448c4.237,7.847,8.479,15.693,12.715,23.541
		c0.473,0.876,0.97,1.744,1.186,2.732c0.711,3.24-1.103,6.149-4.326,6.943c-0.83,0.204-1.447,0.235-2.297,0.235
		C1011.936,89.618,992,89.619,972,89.619c0,0.004,0,0.008,0,0.012c-20,0-40.289-0.004-60.32,0.012c-1.158,0-2.395-0.134-3.513-0.403
		c-2.847-0.69-4.659-3.264-4.27-6.168c0.149-1.106,0.565-2.1,1.092-3.07c5.956-10.996,11.893-21.995,17.843-32.995
		c2.655-4.907,5.271-9.833,7.965-14.72c1.26-2.285,1.483-4.575,0.595-7.039c-0.685-1.898-1.946-3.217-3.69-4.116
		c-0.885-0.457-1.795-0.874-2.715-1.255C918.758,17.3,913.2,13.621,908.039,9.35c-2.375-1.965-4.608-4.114-6.633-6.458
		c-2.28-2.64-4.457-5.353-6.426-8.245c-3.529-5.182-6.216-10.775-8.444-16.608c-2.508-6.563-3.883-13.386-4.546-20.354
		c-0.443-4.669-0.363-9.34,0.041-14.025c1.035-12.006,3.42-23.742,6.639-35.339c2.252-8.11,4.695-16.167,6.805-24.32
		c3.596-13.899,6.512-27.938,8.939-42.083c1.637-9.532,2.795-19.119,3.575-28.756c0.829-10.229,1.475-20.471,2.107-30.713
		c0.05-0.795,0.192-1.585,0.229-2.379c0.037-0.839,0.48-1.13,1.254-1.103c0.398,0.014,0.797-0.011,1.195-0.011
		c38.617-0.005,77.235-0.01,115.853-0.014c0.797,0,1.596,0.034,2.392,0.02c0.742-0.013,1.09,0.343,1.146,1.062
		c0.139,1.788,0.307,3.573,0.431,5.362c0.646,9.344,1.188,18.695,1.945,28.03c1.087,13.42,3.117,26.715,5.674,39.931
		c2.196,11.351,4.669,22.64,7.703,33.798c2.235,8.22,4.615,16.401,6.909,24.606c2.715,9.718,4.462,19.618,5.515,29.646
		C1060.878-53.495,1061.136-48.352,1060.698-43.237z"/>
	<path d="M1050.354-44.202c-24.505-7.955-47.575-7.731-66.758-2.864c-16.229,4.117-62.262,9.257-91.35,3.158
		c-0.517-0.108-1.059-0.169-1.584-0.124c-0.927,0.077-1.089,0.169-1.023,1.124c0.058,0.842,0.225,1.638,0.326,2.476
		c0.69,5.697,2.182,11.17,4.35,16.473c2.329,5.697,5.357,10.998,9.107,15.887c3,3.91,6.343,7.508,10.188,10.59
		c4.59,3.679,11.865,7.59,14.932,9.119c4.287,2.139,10.308,4.585,13.635,5.64c8.466,2.684,17.157,3.998,26.02,4.254
		c9.168,0.265,18.263-0.329,27.223-2.403c5.118-1.184,7.987-1.824,15.396-5.401c10.392-5.017,12.873-7.278,16.258-9.769
		c6.343-4.666,11.452-10.481,15.615-17.093c5.504-8.74,8.877-18.261,10.01-28.577C1052.979-44.287,1052.975-43.351,1050.354-44.202z
		"/>
</g>
<g>
	<path fill="#603813" d="M19.991,9.818c-0.204-4.269-3.935-8.734-7.037-9.475C12.515,0.239,11.958,0,10.441,0
		C9.438,0,9.445,0,8.315,0.239C6.75,0.569,3.999,1.712,2.276,3.835c-1.869,2.304-2.65,4.974-2.107,7.938
		c0.35,1.919,0.975,3.778,1.65,5.603c0.64,1.729,1.316,3.45,2.02,5.152c0.292,0.706,0.59,1.416,0.892,2.119
		c1.6,3.729,3.319,7.408,5.084,11.064C9.862,35.813,9.93,35.904,9.989,36c0.041-0.028,0.066-0.036,0.075-0.054
		c1.59-3.429,3.214-6.843,4.759-10.292c0.149-0.334,0.298-0.668,0.445-1.002c0.413-0.938,0.819-1.878,1.211-2.824
		c1.032-2.485,1.977-5.007,2.753-7.593C19.662,12.797,20.065,11.353,19.991,9.818z"/>
	<path fill="#FFFFFF" d="M15.504,13.326c-0.066-0.627-0.175-1.245-0.344-1.853c-0.142-0.512-0.291-1.023-0.43-1.537
		c-0.189-0.697-0.343-1.402-0.48-2.111c-0.159-0.826-0.285-1.657-0.353-2.496c-0.047-0.583-0.081-1.167-0.122-1.75
		c-0.007-0.112-0.018-0.224-0.026-0.335c-0.003-0.045-0.025-0.316-0.071-0.315c-0.05,0-0.099-0.251-0.148-0.251
		c-2.405,0-4.809,0-7.213,0c-0.025,0-0.05,0-0.075,0c-0.048,0-0.076,0.267-0.079,0.318C6.161,3.047,6.151,3.221,6.149,3.271
		c-0.04,0.64-0.08,1.343-0.131,1.981C5.969,5.854,5.897,6.484,5.795,7.08C5.644,7.963,5.462,8.856,5.238,9.725
		c-0.131,0.509-0.283,1.021-0.423,1.527c-0.2,0.725-0.349,1.462-0.413,2.21c-0.025,0.293-0.031,0.59-0.003,0.881
		c0.042,0.437,0.127,0.861,0.284,1.271c0.139,0.363,0.305,0.715,0.525,1.038c0.122,0.181,0.258,0.352,0.4,0.516
		c0.126,0.146,0.265,0.28,0.413,0.404c0.321,0.266,0.667,0.496,1.055,0.657c0.058,0.023,0.114,0.05,0.169,0.077
		c0.108,0.057,0.187,0.14,0.229,0.258c0.055,0.154,0.042,0.298-0.037,0.441c-0.168,0.305-0.33,0.613-0.497,0.919
		c-0.37,0.688-0.739,1.375-1.11,2.062c-0.033,0.061-0.059-0.038-0.068,0.032c-0.024,0.182,0.411,0.659,0.484,0.659
		c1.247,0,2.508,0,3.754,0l0,0c1.245,0,2.488,0,3.738,0c0.053,0,0.458-0.396,0.414-0.597c-0.014-0.063-0.044-0.085-0.073-0.14
		c-0.264-0.492-0.528-0.969-0.792-1.458c-0.274-0.51-0.544-1.016-0.825-1.522c-0.12-0.217-0.03-0.554,0.221-0.664
		c0.031-0.013,0.062-0.023,0.092-0.038c0.132-0.062,0.269-0.118,0.396-0.189c0.367-0.205,0.706-0.446,1-0.752
		c0.248-0.256,0.468-0.534,0.652-0.838c0.19-0.314,0.339-0.651,0.46-0.998c0.136-0.388,0.208-0.789,0.242-1.195
		C15.553,13.967,15.537,13.645,15.504,13.326z M15.027,14.381c-0.07,0.645-0.28,1.239-0.623,1.786
		c-0.259,0.413-0.578,0.775-0.973,1.067c-0.21,0.155-0.365,0.298-1.012,0.61c-0.461,0.224-0.64,0.264-0.958,0.339
		c-0.558,0.129-1.125,0.165-1.695,0.149c-0.552-0.016-1.093-0.099-1.62-0.267c-0.208-0.065-0.583-0.219-0.849-0.352
		c-0.191-0.096-0.645-0.34-0.93-0.569c-0.239-0.193-0.448-0.417-0.634-0.662C5.5,16.179,5.311,15.846,5.166,15.49
		c-0.135-0.331-0.228-0.673-0.271-1.027c-0.006-0.055-0.017-0.104-0.02-0.156c-0.004-0.06,0.005-0.065,0.063-0.069
		c0.033-0.003,0.066,0.001,0.099,0.007c1.811,0.381,4.677,0.061,5.688-0.196c1.194-0.306,2.631-0.318,4.156,0.178
		C15.045,14.279,15.045,14.221,15.027,14.381z"/>
</g>
</svg>
